{
	"accessors" : 
	[
		{
			"bufferView" : 2,
			"byteOffset" : 0,
			"componentType" : 5126,
			"count" : 7614,
			"max" : 
			[
				1,
				1,
				1,
				1
			],
			"min" : 
			[
				0,
				0.0384727455675602,
				0,
				1
			],
			"name" : "accessor_color_m0-PolyPaper12_-1881174",
			"type" : "VEC4"
		},
		{
			"bufferView" : 2,
			"byteOffset" : 121824,
			"componentType" : 5126,
			"count" : 10812,
			"max" : 
			[
				1,
				1,
				1,
				1
			],
			"min" : 
			[
				0,
				0.006584956776350737,
				0,
				1
			],
			"name" : "accessor_color_m1-PolyPaper19_-1881180",
			"type" : "VEC4"
		},
		{
			"bufferView" : 0,
			"byteOffset" : 0,
			"componentType" : 5123,
			"count" : 11376,
			"max" : 
			[
				7613
			],
			"min" : 
			[
				0
			],
			"name" : "accessor_indices_0_m0-PolyPaper12_-1881174",
			"type" : "SCALAR"
		},
		{
			"bufferView" : 0,
			"byteOffset" : 22752,
			"componentType" : 5123,
			"count" : 16428,
			"max" : 
			[
				10811
			],
			"min" : 
			[
				0
			],
			"name" : "accessor_indices_0_m1-PolyPaper19_-1881180",
			"type" : "SCALAR"
		},
		{
			"bufferView" : 1,
			"byteOffset" : 91368,
			"componentType" : 5126,
			"count" : 7614,
			"max" : 
			[
				1,
				0.9999992,
				0.9999996
			],
			"min" : 
			[
				-0.9999865,
				-0.9999992,
				-0.9999659
			],
			"name" : "accessor_normal_m0-PolyPaper12_-1881174",
			"type" : "VEC3"
		},
		{
			"bufferView" : 1,
			"byteOffset" : 312480,
			"componentType" : 5126,
			"count" : 10812,
			"max" : 
			[
				0.9999710000000001,
				0.9999973,
				1
			],
			"min" : 
			[
				-0.9999886,
				-0.9999948,
				-0.9999517999999999
			],
			"name" : "accessor_normal_m1-PolyPaper19_-1881180",
			"type" : "VEC3"
		},
		{
			"bufferView" : 1,
			"byteOffset" : 0,
			"componentType" : 5126,
			"count" : 7614,
			"max" : 
			[
				0.9592324,
				-1.184455,
				2.091933
			],
			"min" : 
			[
				-1.239183,
				-4.286026,
				-2.004074
			],
			"name" : "accessor_position_m0-PolyPaper12_-1881174",
			"type" : "VEC3"
		},
		{
			"bufferView" : 1,
			"byteOffset" : 182736,
			"componentType" : 5126,
			"count" : 10812,
			"max" : 
			[
				1.050366,
				-0.9099042000000001,
				2.091933
			],
			"min" : 
			[
				-1.355376,
				-4.202654,
				-0.7783191
			],
			"name" : "accessor_position_m1-PolyPaper19_-1881180",
			"type" : "VEC3"
		}
	],
	"asset" : 
	{
		"copyright" : "Unknown",
		"generator" : "glTF 1-to-2 Upgrader for Google Blocks",
		"version" : "2.0"
	},
	"bufferViews" : 
	[
		{
			"buffer" : 0,
			"byteLength" : 55608,
			"byteOffset" : 0,
			"name" : "ushortBufferView",
			"target" : 34963
		},
		{
			"buffer" : 0,
			"byteLength" : 442224,
			"byteOffset" : 55608,
			"byteStride" : 12,
			"name" : "vec3BufferView",
			"target" : 34962
		},
		{
			"buffer" : 0,
			"byteLength" : 294816,
			"byteOffset" : 497832,
			"byteStride" : 16,
			"name" : "vec4BufferView",
			"target" : 34962
		}
	],
	"buffers" : 
	[
		{
			"byteLength" : 792648,
			"name" : "model",
			"uri" : "model.bin"
		}
	],
	"materials" : 
	[
		{
			"alphaMode" : "OPAQUE",
			"doubleSided" : false,
			"name" : "BlocksPaper",
			"pbrMetallicRoughness" : 
			{
				"baseColorFactor" : 
				[
					1,
					1,
					1,
					1
				],
				"metallicFactor" : 0,
				"roughnessFactor" : 0.6
			}
		},
		{
			"alphaMode" : "BLEND",
			"doubleSided" : false,
			"name" : "BlocksGlass",
			"pbrMetallicRoughness" : 
			{
				"baseColorFactor" : 
				[
					0.2,
					0.2,
					1,
					0.3
				],
				"metallicFactor" : 1,
				"roughnessFactor" : 0.4
			}
		},
		{
			"alphaMode" : "OPAQUE",
			"doubleSided" : true,
			"name" : "BlocksGem",
			"pbrMetallicRoughness" : 
			{
				"baseColorFactor" : 
				[
					1,
					0.4,
					1,
					1
				],
				"metallicFactor" : 0,
				"roughnessFactor" : 0.1
			}
		}
	],
	"meshes" : 
	[
		{
			"name" : "mesh_m0-PolyPaper12_-1881174",
			"primitives" : 
			[
				{
					"attributes" : 
					{
						"COLOR_0" : 0,
						"NORMAL" : 4,
						"POSITION" : 6
					},
					"indices" : 2,
					"material" : 0,
					"mode" : 4
				}
			]
		},
		{
			"name" : "mesh_m1-PolyPaper19_-1881180",
			"primitives" : 
			[
				{
					"attributes" : 
					{
						"COLOR_0" : 1,
						"NORMAL" : 5,
						"POSITION" : 7
					},
					"indices" : 3,
					"material" : 0,
					"mode" : 4
				}
			]
		}
	],
	"nodes" : 
	[
		{
			"matrix" : 
			[
				1,
				0,
				0,
				0,
				0,
				1,
				0,
				0,
				0,
				0,
				1,
				0,
				0,
				0,
				0,
				1
			],
			"mesh" : 1,
			"name" : "node_MeshObject1333731328-PolyPaper19"
		},
		{
			"matrix" : 
			[
				1,
				0,
				0,
				0,
				0,
				1,
				0,
				0,
				0,
				0,
				1,
				0,
				0,
				0,
				0,
				1
			],
			"mesh" : 0,
			"name" : "node_MeshObject761652224-PolyPaper12"
		}
	],
	"scene" : 0,
	"scenes" : 
	[
		{
			"extras" : {},
			"name" : "defaultScene",
			"nodes" : 
			[
				1,
				0
			]
		}
	]
}